<svg xmlns="http://www.w3.org/2000/svg" width="1065" height="213.61"><g data-name="Layer 2"><g data-name="Layer 1"><g data-name="Layer 2"><path d="M225.86 88.14c-2.37.43-5.05.9-7 1.15-2.75.35-5.68.77-8.74 1.26-19.2 2.73-53.38 10.2-66.44 29.62a46.85 46.85 0 0 0-5.19 10 .2.2 0 0 0-.09.09s-.4 1.11-.9 3c-.27 1-.5 2-.73 3.15 0 .24-.09.49-.14.74v.16a3.38 3.38 0 0 1-.09.54c-.06.33-.12.67-.16 1a87.85 87.85 0 0 0-1 16.76c.08 2.94.27 5.38.41 7.35.51 6.79.67 9.08-4 13.15a5.91 5.91 0 0 0-.92.95l-9.76 8.76a.21.21 0 0 1-.29 0 .24.24 0 0 1-.05-.14v-49.25c.1-3.11.85-8.78 4.71-11.87 13.41-10.71 22.4-27.81 22.49-28a.17.17 0 0 0 0-.1 54.85 54.85 0 0 0 4.52-10.33c8.23-25.43-20.88-63.35-30-74.36l-1.31-1.65c-2.93-3.73-2.27-6.36-1.79-8.25a4.74 4.74 0 0 0 .26-1.71.18.18 0 0 0-.15-.18c-.29-.06-.81.63-3.78 4.81-1.37 2-2.92 4.19-4.15 5.78-1.7 2.19-3.43 4.49-5.3 7-11.66 15.52-30.51 45-26 67.93a47 47 0 0 0 3.66 11.26.17.17 0 0 0 0 .14A68.54 68.54 0 0 0 106 123.27c3.37 2.34 6.49 6.1 6.55 17.65v44.61a.31.31 0 0 1-.51.23l-6.45-5.67-3.38-3c-2.74-2.52-4.17-8.42-4.53-18.55A130.48 130.48 0 0 0 95.06 135a44.35 44.35 0 0 0-6.74-15.27c-13.06-19.41-47.26-26.88-66.45-29.62-3.07-.47-6-.89-8.73-1.26-2-.25-4.66-.73-7-1.15C1.06 86.81.22 86.71 0 87a.24.24 0 0 0 0 .23 4.82 4.82 0 0 0 1.45 1c1.71 1 4 2.38 4.54 7.11l.24 2v.06c1.34 14.24 7.56 61.64 31.37 73.79a55.92 55.92 0 0 0 9.26 3.81c7.71 3.05 29.3 5.41 38.51 6.41 1.82.2 3.27.36 4 .46 3.83.5 6 1.93 11.89 5.76l2 1.26 5.83 5.1c.82.76 3.46 3.64 3.46 9.29v10.2a.17.17 0 0 0 .17.16h.11a18.43 18.43 0 0 1 3.78-.46 19.88 19.88 0 0 1 3.91.46.17.17 0 0 0 .14 0 .14.14 0 0 0 .06-.12v-9.94c.06-6.27 3.32-9.49 3.45-9.61l13-11.62c6-5.54 10.32-4.56 15.75-3.32l.63.13c16.32 3.67 31.81-2.73 39.59-6.86a5.45 5.45 0 0 1 .55-.25l.7-.32c23.8-12.16 30-59.56 31.36-73.79v-.07l.24-2c.55-4.73 2.86-6.1 4.55-7.1a4.73 4.73 0 0 0 1.39-1 .3.3 0 0 0 0-.23c-.17-.39-1.02-.29-6.07.6Zm-163.59 21.3a56.18 56.18 0 0 0-1.68 12.11L41.24 102.2a120.12 120.12 0 0 1 21.03 7.24ZM14.38 97.35a210 210 0 0 1 12.31 1.76l35 35a58.89 58.89 0 0 0 6.54 17.45 59.25 59.25 0 0 0-17-6.34l-35.15-35.08a196.9 196.9 0 0 1-1.7-12.79Zm12 48.52A116.16 116.16 0 0 1 19 124.55l19.58 19.58a55.88 55.88 0 0 0-12.27 1.75Zm59.12 27.65c-3.89 0-24-.38-40.78-8-1.26-.54-2.36-1-3.39-1.57-3.92-2-7.57-5.61-10.93-10.74A47.8 47.8 0 0 1 59 156c.73.25 17.81 6.2 26.85 17.54Zm-11.57-28.39a.12.12 0 0 0 0-.14 47.79 47.79 0 0 1-4.24-31.57 38.92 38.92 0 0 1 11.9 10.79 40.51 40.51 0 0 1 2.6 4.46v.05l.1.05c1.41 2.32 5.26 13.46 5.84 20.84s1.36 16.68 1.53 18.72a81.08 81.08 0 0 1-17.77-23.19ZM132.61 40a116.08 116.08 0 0 1 9.9 20.25 55.26 55.26 0 0 0-9.9 7.44Zm-31.5-.11v27.37a56.8 56.8 0 0 0-9.77-7.4 120.45 120.45 0 0 1 9.75-20Zm11.79 77.94a57.71 57.71 0 0 1-21.67-24.32l-.39-.85-.11-.24-.09-.18a.11.11 0 0 0 0-.08A39.87 39.87 0 0 1 88.16 84c-.9-4.57-.63-10 .79-16a47.15 47.15 0 0 1 17.47 20.61.15.15 0 0 0 .13.1c.09.23.33.78.63 1.59l.26.67v.08c1.86 4.66 6.02 16.62 5.46 26.79Zm-3.7-41V27.42c3.24-4.59 6-8.15 7.46-9.94 2.52 3.08 5.25 6.62 7.84 10.23v49.61a59 59 0 0 0-7.56 16.54 58.67 58.67 0 0 0-7.74-16.98Zm11.09 41c-.79-12.81 7-29.06 7.71-30.55a.17.17 0 0 0 .14-.09 47.1 47.1 0 0 1 16.72-18.9c1.26 6 1.23 11.13-.13 15.32a48.57 48.57 0 0 1-2.73 6.78.14.14 0 0 0 0 .09c-8.42 18.52-20 26.27-21.71 27.36Zm70.44-15.22L171.38 122a56.89 56.89 0 0 0-1.67-12.12 121.1 121.1 0 0 1 21-7.23Zm-47.21 63.32c-4.05-24.05 3.53-35.57 3.87-36.06a40.19 40.19 0 0 1 3-5.21c2.6-3.87 6.6-7.5 11.9-10.79A47.1 47.1 0 0 1 161 138.3a.11.11 0 0 0 0 .08c-2.62 10.62-15.62 25.45-17.48 27.56Zm47.14-1.52a49.51 49.51 0 0 1-6.37 2.71s-.06 0-.07.05c-14.26 5.82-32.83 4-35.58 3.74 7.08-6.46 17.69-11.57 23.42-14.06.58-.27 1.21-.54 1.89-.8l1.78-.71a.14.14 0 0 0 .16 0 47.19 47.19 0 0 1 25.71-1.7c-3.35 5.11-7 8.74-10.94 10.74Zm15-18.11a56.38 56.38 0 0 0-12.26-1.74L212.94 125a115.45 115.45 0 0 1-7.32 21.32Zm10.28-35.75-35.08 35.08a59.73 59.73 0 0 0-17 6.34 58.87 58.87 0 0 0 6.53-17.45l35-35c5.53-1 10-1.5 12.3-1.76-.38 4-1 8.37-1.69 12.76Zm742.24-39.89 20.52-2.77q9.75-1.41 14.57-5.67t4.81-11.93a18.51 18.51 0 0 0-3.15-10.52 21.51 21.51 0 0 0-9.34-7.46 36.32 36.32 0 0 0-14.86-2.79A35 35 0 0 0 953 33.84a29.64 29.64 0 0 0-11.72 12.48 42 42 0 0 0-4.18 19.32A40.37 40.37 0 0 0 941.54 85a30.76 30.76 0 0 0 12.14 12.6 34.76 34.76 0 0 0 17.49 4.4 35.13 35.13 0 0 0 14.93-2.9 27.12 27.12 0 0 0 9.9-7.46 26.82 26.82 0 0 0 5-9.69 1.84 1.84 0 0 0 0-1.68 1.39 1.39 0 0 0-1.26-.69 1.72 1.72 0 0 0-1.54 1.12 25 25 0 0 1-7.39 8.64 18.66 18.66 0 0 1-11.15 3.21A18.45 18.45 0 0 1 969 89.27a22.3 22.3 0 0 1-6.09-6.45S961.18 80 959 76.11c-1.37-2.4-3.38-4.1-6.75-3.71l-.12-.9Zm0-25.16a18.16 18.16 0 0 1 4.32-8.36 9.4 9.4 0 0 1 7-3 8.92 8.92 0 0 1 8 4.3q2.79 4.34 2.79 11.44 0 6.3-2.92 10t-9.07 4.53l-11 1.52v-.22a68.34 68.34 0 0 1-.38-7.43 51.16 51.16 0 0 1 1.28-12.78Zm-673.29 55.15h7.67a2.23 2.23 0 0 0 1.53-.48 1.69 1.69 0 0 0 .56-1.33 2.05 2.05 0 0 0-.49-1.4 5.87 5.87 0 0 0-1.46-1.11 14.57 14.57 0 0 1-4.89-5.16q-1.94-3.35-1.94-11.85v-24h12.68a26 26 0 0 1 6.7.7 10.06 10.06 0 0 1 4.32 2.44 16.58 16.58 0 0 1 3.35 5.23 8.28 8.28 0 0 0 1.6 1.89 2.44 2.44 0 0 0 1.61.63 1.88 1.88 0 0 0 1.6-.63 2 2 0 0 0 .34-1.6L315 40.29c-.19-1.77-1-2.65-2.38-2.65a2 2 0 0 0-1.66.69 10.11 10.11 0 0 0-1.27 2.52 1.32 1.32 0 0 1-.13.56 1.2 1.2 0 0 0-.15.56 11.06 11.06 0 0 1-1.74 4.53 7 7 0 0 1-3.21 2.37 17 17 0 0 1-5.76.75h-12.83V24a53.76 53.76 0 0 0-.56-9.14 5.64 5.64 0 0 0-2.23-3.9 10.07 10.07 0 0 0-5.16-1v-1.2h31.5a15.6 15.6 0 0 1 7.88 1.74 14.05 14.05 0 0 1 5 5.23 106.71 106.71 0 0 1 5.23 11l.29.7a10.64 10.64 0 0 0 1.39 1.95 2 2 0 0 0 1.53.55 1.94 1.94 0 0 0 1.68-.76 2.77 2.77 0 0 0 .41-2l-2.78-20.8A3.59 3.59 0 0 0 326.18 3h-64.72a2.34 2.34 0 0 0-1.46.49 1.61 1.61 0 0 0-.63 1.33 2 2 0 0 0 .49 1.39 5.06 5.06 0 0 0 1.6 1.11 13.89 13.89 0 0 1 4.81 5.17q1.89 3.35 1.89 11.85V79.3q0 8.51-1.89 11.85a13.93 13.93 0 0 1-4.81 5.16 5.25 5.25 0 0 0-1.6 1.12 2.06 2.06 0 0 0-.49 1.39 1.61 1.61 0 0 0 .63 1.33 2.27 2.27 0 0 0 1.46.48h23.43Zm58.02-79.22a14.57 14.57 0 0 0 8.58 2.37 14.92 14.92 0 0 0 9-2.58A8 8 0 0 0 364 14.5a7.43 7.43 0 0 0-3.31-6.5 14.51 14.51 0 0 0-8.51-2.34 15.09 15.09 0 0 0-9.13 2.6A8 8 0 0 0 339.5 15a7.41 7.41 0 0 0 3.41 6.43Zm25.74 79.22a2 2 0 0 0 1.33-.41 1.4 1.4 0 0 0 .48-1.12c0-.74-.63-1.4-1.81-2a11.21 11.21 0 0 1-4-4.41c-1-1.91-1.54-5.18-1.54-9.83V32.61a3.38 3.38 0 0 0-.69-2.3 2.34 2.34 0 0 0-1.82-.77 7.56 7.56 0 0 0-2.52.56q-6.69 2.79-18.27 3.78a2.59 2.59 0 0 0-1.33.56 1.6 1.6 0 0 0-.48 1.26 2.19 2.19 0 0 0 .56 1 5 5 0 0 0 1.26.83 10 10 0 0 1 4 4q1.61 2.76 1.6 10.16V83q0 7-1.53 9.83a11.38 11.38 0 0 1-4.05 4.41c-1.21.55-1.81 1.21-1.81 2a1.38 1.38 0 0 0 .49 1.12 2 2 0 0 0 1.32.41h28.89Zm81.63-7.87a11.24 11.24 0 0 1-4 4.41c-1.2.55-1.81 1.21-1.81 2a1.41 1.41 0 0 0 .49 1.12 2 2 0 0 0 1.32.41h28.82a2 2 0 0 0 1.33-.41 1.4 1.4 0 0 0 .48-1.12c0-.74-.63-1.4-1.81-2a11.38 11.38 0 0 1-4.05-4.41c-1-1.91-1.53-5.18-1.53-9.83V3.19a3.31 3.31 0 0 0-.68-2.31A2.35 2.35 0 0 0 467 .12a7.86 7.86 0 0 0-2.52.55q-6.69 2.79-18.27 3.78a2.68 2.68 0 0 0-1.31.55 1.54 1.54 0 0 0-.49 1.26 2 2 0 0 0 .56 1 4.48 4.48 0 0 0 1.26.84 10.11 10.11 0 0 1 4 4.05q1.64 2.78 1.63 10.15V83q-.03 6.91-1.58 9.78ZM511 102q9.76 0 14.92-5.67a21.38 21.38 0 0 0 4.72-8.7v.69q.71 6.14 5 9.2t11.34 3.07h6.55a2 2 0 0 0 1.32-.42 1.4 1.4 0 0 0 .49-1.11c0-.75-.63-1.4-1.81-2a13.59 13.59 0 0 1-4-4.46c-1.08-1.86-1.61-5.11-1.61-9.76V3.19a3.63 3.63 0 0 0-.63-2.31 2.14 2.14 0 0 0-1.7-.76 6.79 6.79 0 0 0-2.59.55A35.64 35.64 0 0 1 535.85 3a90.72 90.72 0 0 1-10.53 1.3c-1.2.18-1.8.74-1.8 1.67a1.38 1.38 0 0 0 .55 1c.37.32.79.67 1.26 1a12 12 0 0 1 3.49 3.63q1.39 2.24 1.39 7.39v8.65a13.7 13.7 0 0 0 .91 5.58 13.63 13.63 0 0 0 2.88 3.96c.09 0 .14 0 .14.07s0 .07.14.07v1.19a25.66 25.66 0 0 0-20.5-9 30.16 30.16 0 0 0-16.11 4.33 29.18 29.18 0 0 0-11 12.48q-4 8.14-4 19.45a48 48 0 0 0 3.49 19 29 29 0 0 0 9.9 12.69A25.08 25.08 0 0 0 511 102Zm-5.59-61.35q3.35-6 9.62-6 4.88 0 8.37 5a36.5 36.5 0 0 1 5.23 13.11 83.48 83.48 0 0 1 1.74 17.56 48.94 48.94 0 0 1-1.54 13.32 18.05 18.05 0 0 1-4.32 8.09 9.45 9.45 0 0 1-6.82 2.7q-4.87 0-8.43-4.88a34.82 34.82 0 0 1-5.37-13A81.14 81.14 0 0 1 502.05 59q0-12.31 3.34-18.31ZM675 89.78a22.79 22.79 0 0 0 4.46-14 22.94 22.94 0 0 0-3.49-12.69 36.8 36.8 0 0 0-9.69-9.9 177.65 177.65 0 0 0-17.36-10.6 142.23 142.23 0 0 1-12.43-7.73 24.86 24.86 0 0 1-6.55-6.7 15 15 0 0 1-2.27-8.16 12.71 12.71 0 0 1 3.41-9q3.42-3.63 9.69-3.63a16.64 16.64 0 0 1 9.07 2.3 15.32 15.32 0 0 1 5.44 5.72 25 25 0 0 1 2.52 7.46 13.67 13.67 0 0 0 3 7.18 8.22 8.22 0 0 0 6.48 2.58 8.06 8.06 0 0 0 6.07-2.23q2.17-2.22 2.17-6.66A18.06 18.06 0 0 0 672 13.43Q668.54 8.34 661.32 5t-18-3.34q-10.17 0-17.29 3.41A25.49 25.49 0 0 0 615.35 14a21.9 21.9 0 0 0-3.56 12.06 22 22 0 0 0 3 11.34 34.53 34.53 0 0 0 9.45 9.91 121.4 121.4 0 0 0 17.5 10.38q11 5.73 16 11.58t5.05 12.41a14.08 14.08 0 0 1-4.19 10.6q-4.18 4-11.44 4a18.25 18.25 0 0 1-9.62-2.37 16.74 16.74 0 0 1-6.06-6.3 23.1 23.1 0 0 1-2.69-8.61 17.84 17.84 0 0 0-3.79-8.93 9.31 9.31 0 0 0-7.39-3.2 8.5 8.5 0 0 0-6.69 2.64 10 10 0 0 0-2.37 7 20.85 20.85 0 0 0 4.1 11.92q4.11 5.93 12.28 9.76t19.6 3.81a48.34 48.34 0 0 0 18.06-3.15A28.28 28.28 0 0 0 675 89.78Zm55.86-11.72a1.3 1.3 0 0 0-1 .49 2.61 2.61 0 0 0-.56 1q-.27 6.14-2.23 9.34a6.57 6.57 0 0 1-6 3.21q-4.74 0-7-6T711.76 69V47.53c0-4.28.79-7.31 2.37-9.07s4.18-2.65 7.8-2.65h4.75a2.28 2.28 0 0 0 1.89-.77 2.67 2.67 0 0 0 .63-1.73 2.25 2.25 0 0 0-.7-1.75 2.61 2.61 0 0 0-1.81-.63h-14.92V9a2.69 2.69 0 0 0-.7-1.89 2.16 2.16 0 0 0-1.67-.76 2.46 2.46 0 0 0-2.4 1.98 45.1 45.1 0 0 1-4.95 13.11 23.27 23.27 0 0 1-6.4 7.19 12.24 12.24 0 0 1-6.93 2.3h-3.21a2.61 2.61 0 0 0-1.81.63 2.22 2.22 0 0 0-.7 1.75 2.49 2.49 0 0 0 .7 1.73 2.28 2.28 0 0 0 1.81.77h15.89v1q-3.9 0-5.67 2.37c-1.17 1.58-1.75 4.32-1.72 8.23v24.24q0 14.77 5.23 22.59T715 102q8.64 0 13.11-5.85T732.39 80a2.26 2.26 0 0 0-.41-1.4 1.35 1.35 0 0 0-1.12-.54Zm80.76 19.11a13.81 13.81 0 0 1-4-4.46C806.58 90.85 806 87.59 806 83V32.61a3.54 3.54 0 0 0-.63-2.3 2.14 2.14 0 0 0-1.75-.77 6.69 6.69 0 0 0-2.52.56q-6.69 2.79-18.4 3.78a2.59 2.59 0 0 0-1.33.56 1.26 1.26 0 0 0-.35 1.26 2.19 2.19 0 0 0 .56 1 5.7 5.7 0 0 0 1.12.83 9.49 9.49 0 0 1 4 4c1 1.86 1.53 5.25 1.54 10.19v20.65q0 10.59-2.66 16T776 93.71a10.28 10.28 0 0 1-7.67-3.56q-3.33-3.57-5.19-10.25a60.11 60.11 0 0 1-1.89-16.17V32.61a3.29 3.29 0 0 0-.7-2.3 2.31 2.31 0 0 0-1.81-.77 7.5 7.5 0 0 0-2.52.56q-6.69 2.79-18.28 3.78a2.6 2.6 0 0 0-1.32.56 1.54 1.54 0 0 0-.49 1.26 2.1 2.1 0 0 0 .56 1 4.83 4.83 0 0 0 1.26.83 10.18 10.18 0 0 1 4 4c1.06 1.86 1.6 5.25 1.6 10.19v17.86q0 10.32 3.2 17.57a25.28 25.28 0 0 0 8.93 11.09 23 23 0 0 0 13.11 3.83q10.17 0 15.06-5.67a23.29 23.29 0 0 0 4.84-8.67c.71 4.33 2.34 7.56 4.92 9.65s6.5 3.28 11.43 3.27h6.6a2 2 0 0 0 1.33-.41 1.4 1.4 0 0 0 .48-1.12c-.03-.74-.64-1.4-1.83-1.95Zm78.38 0a13.81 13.81 0 0 1-4-4.46c-1.07-1.86-1.61-5.12-1.61-9.76V3.19a3.57 3.57 0 0 0-.59-2.31 2.14 2.14 0 0 0-1.74-.76 6.83 6.83 0 0 0-2.52.55A35.64 35.64 0 0 1 872.35 3a90.55 90.55 0 0 1-10.52 1.3C860.62 4.48 860 5 860 6a1.41 1.41 0 0 0 .55 1c.37.32.79.67 1.26 1a12 12 0 0 1 3.49 3.63c.92 1.49 1.39 4 1.39 7.39v8.65a13.53 13.53 0 0 0 .91 5.58 13.7 13.7 0 0 0 2.85 3.9c.09 0 .14 0 .14.07s0 .07.14.07v1.19a25.61 25.61 0 0 0-20.49-9 30.16 30.16 0 0 0-16.11 4.33 29.18 29.18 0 0 0-11 12.48q-4 8.18-4 19.46a48.19 48.19 0 0 0 3.49 19 29 29 0 0 0 9.9 12.69 25.16 25.16 0 0 0 14.97 4.56q9.76 0 14.92-5.67a21.52 21.52 0 0 0 4.73-8.7v.69q.69 6.14 5 9.2c2.83 2 6.62 3.06 11.34 3.07H890a2 2 0 0 0 1.33-.42 1.39 1.39 0 0 0 .48-1.11c.01-.68-.59-1.34-1.81-1.89Zm-24.67-13.46A18.09 18.09 0 0 1 861 91.8a9.43 9.43 0 0 1-6.84 2.71q-4.87 0-8.43-4.87a34.54 34.54 0 0 1-5.37-13 81.1 81.1 0 0 1-1.8-17.64q0-12.27 3.35-18.28t9.62-6q4.88 0 8.37 5a36.5 36.5 0 0 1 5.22 13.11 83.65 83.65 0 0 1 1.75 17.57 48.83 48.83 0 0 1-1.54 13.31Zm64.51 13.46a11.31 11.31 0 0 1-4.05-4.41c-1-1.91-1.53-5.18-1.53-9.83V32.61a3.24 3.24 0 0 0-.7-2.3 2.31 2.31 0 0 0-1.81-.77 7.5 7.5 0 0 0-2.52.56q-6.69 2.79-18.28 3.78a2.6 2.6 0 0 0-1.32.56 1.54 1.54 0 0 0-.49 1.26 2.19 2.19 0 0 0 .56 1 4.83 4.83 0 0 0 1.26.83 10.11 10.11 0 0 1 4 4c1.06 1.86 1.6 5.25 1.6 10.19V83c0 4.65-.51 7.92-1.53 9.83a11.31 11.31 0 0 1-4 4.41c-1.21.56-1.81 1.21-1.81 2a1.37 1.37 0 0 0 .49 1.11 2 2 0 0 0 1.32.42h28.87a2 2 0 0 0 1.32-.42 1.44 1.44 0 0 0 .49-1.11c-.06-.86-.71-1.52-1.87-2.07Zm-25.73-75.74a14.57 14.57 0 0 0 8.58 2.37 14.92 14.92 0 0 0 9-2.58 8 8 0 0 0 3.55-6.72 7.41 7.41 0 0 0-3.35-6.5 14.65 14.65 0 0 0-8.5-2.32 15.17 15.17 0 0 0-9.14 2.58A8 8 0 0 0 900.7 15a7.4 7.4 0 0 0 3.41 6.43Zm158.53 50.71a22.2 22.2 0 0 0-5.93-6.21 79.82 79.82 0 0 0-9.55-5.57q-2-.84-4.74-2.38a81.55 81.55 0 0 1-13-7.95q-4.14-3.35-4.18-7.81a7.53 7.53 0 0 1 2.44-5.93 9.51 9.51 0 0 1 6.48-2.16 10 10 0 0 1 7.19 2.58 11.27 11.27 0 0 1 3.27 7 11.56 11.56 0 0 0 3.18 6.29 8.62 8.62 0 0 0 6.35 2.44 6.82 6.82 0 0 0 5.3-1.95 7.17 7.17 0 0 0 1.81-5 12.41 12.41 0 0 0-2.86-7.81 19.87 19.87 0 0 0-8.5-5.86 36.73 36.73 0 0 0-13.46-2.23 37.54 37.54 0 0 0-14 2.44 21.1 21.1 0 0 0-9.41 6.84 16.26 16.26 0 0 0-3.28 10 15.62 15.62 0 0 0 4.68 11.5q4.66 4.66 15 10.25l.55.27a96.47 96.47 0 0 1 9.48 5.8 24.84 24.84 0 0 1 5.73 5.43 10.5 10.5 0 0 1 2.08 6.35 8.22 8.22 0 0 1-2.85 6.69 11.31 11.31 0 0 1-7.46 2.37 10.84 10.84 0 0 1-7.89-3.07q-3.15-3.06-3.55-8.78a11.07 11.07 0 0 0-3.07-6.56 8.5 8.5 0 0 0-6.3-2.52 8 8 0 0 0-5.78 2.1 7.39 7.39 0 0 0-2.17 5.57 13.55 13.55 0 0 0 3.56 9.2 23.63 23.63 0 0 0 9.83 6.35 41 41 0 0 0 14.23 2.3 40.09 40.09 0 0 0 14.49-2.58A25.29 25.29 0 0 0 1061 92a16.73 16.73 0 0 0 4-11 16.3 16.3 0 0 0-2.36-8.86ZM334.76 184.53a1.9 1.9 0 0 0-1.39.84 36.13 36.13 0 0 1-5.23 8.29 30.5 30.5 0 0 1-9.55 7.6 29 29 0 0 1-13.95 3.21 29.5 29.5 0 0 1-17.71-5.67 37.66 37.66 0 0 1-12.27-16 58.82 58.82 0 0 1-4.46-23.56 65.9 65.9 0 0 1 3.42-21.89q3.42-9.76 9.83-15.34a22.07 22.07 0 0 1 14.92-5.58q10.59 0 15.12 6.35a24.76 24.76 0 0 1 4.51 14.87 10 10 0 0 0 1.81 6.35 6.19 6.19 0 0 0 5.16 2.3 6.05 6.05 0 0 0 5-2.16 8.13 8.13 0 0 0 1.74-5.23 25.68 25.68 0 0 0-3.15-12 26.36 26.36 0 0 0-10.09-10.18q-6.93-4.19-18-4.19a40.15 40.15 0 0 0-22.23 6.35 42.19 42.19 0 0 0-15.34 18.13q-5.5 11.77-5.51 27.54 0 15.35 5.67 26.28a40.7 40.7 0 0 0 15 16.59 38.26 38.26 0 0 0 20.21 5.67q11.44 0 19.38-4.41a37 37 0 0 0 12.28-10.38 36.17 36.17 0 0 0 5.83-11.82 1.62 1.62 0 0 0 0-1.33 1 1 0 0 0-1-.63Zm55.78-40.15a32.06 32.06 0 0 0-15.83-3.91 29.28 29.28 0 0 0-16.11 4.6 31.35 31.35 0 0 0-11.29 13.09 45.3 45.3 0 0 0-4.1 19.82q0 11.29 4.05 19.17A27.68 27.68 0 0 0 358.33 209a31.74 31.74 0 0 0 15.83 4 29.28 29.28 0 0 0 16.18-4.67 31.53 31.53 0 0 0 11.34-13.24 45.48 45.48 0 0 0 4.11-19.87q0-11.3-4.11-19.1a27.74 27.74 0 0 0-11.14-11.74Zm-2.44 57.79q-4.89 7.47-13.11 7.46-5.72 0-10-4.88t-6.62-13.23a71 71 0 0 1-2.3-18.86q0-14.24 4.87-21.55t13.06-7.32q5.57 0 9.9 4.81t6.69 13.18a67.7 67.7 0 0 1 2.41 18.57q0 14.36-4.9 21.82Zm91.95 7.03a9.47 9.47 0 0 1-3.84-3.84q-1.47-2.58-1.46-9.69v-53.11a2.11 2.11 0 0 0-.56-1.53 1.74 1.74 0 0 0-1.26-.56 4.62 4.62 0 0 0-2 .56 39.63 39.63 0 0 1-13.1 2.92 1.42 1.42 0 0 0-.91.29 1 1 0 0 0-.35.83 1.45 1.45 0 0 0 .49.7 4.62 4.62 0 0 0 .9.55 8.59 8.59 0 0 1 3.84 3.7q1.61 2.73 1.6 10.53v21.34q0 11.72-3.27 18.33t-12.76 6.63a13.88 13.88 0 0 1-9.41-3.63q-4.12-3.63-6.49-10.53a51.63 51.63 0 0 1-2.37-16.52v-33.61a2.23 2.23 0 0 0-.49-1.53 1.66 1.66 0 0 0-1.32-.56 4.48 4.48 0 0 0-1.95.56 39.69 39.69 0 0 1-13.07 2.97 1.42 1.42 0 0 0-.91.29.72.72 0 0 0-.2.83.84.84 0 0 0 .34.7 4.69 4.69 0 0 0 .91.55 8.1 8.1 0 0 1 3.9 3.7q1.54 2.73 1.54 10.53v18.13q0 11.3 3.34 19t9.07 11.49a23 23 0 0 0 13 3.78q10.88 0 15.54-6.3a27.32 27.32 0 0 0 4.67-9.75v2.22q.56 6.71 3.91 9.55t9.34 2.86h3.62a1.16 1.16 0 0 0 .84-.28 1 1 0 0 0 .28-.7c-.02-.55-.46-1.01-1.41-1.4Zm78.66 0a8.56 8.56 0 0 1-3.84-3.78c-1-1.76-1.46-5-1.46-9.76v-27.42q0-14.07-5.37-20.92t-16.38-6.83a21.81 21.81 0 0 0-13.32 4 26.12 26.12 0 0 0-8 9.27 30.75 30.75 0 0 0-2.52 6.61v-17.81a2.23 2.23 0 0 0-.49-1.53 1.66 1.66 0 0 0-1.32-.56 4.48 4.48 0 0 0-1.95.56 39.69 39.69 0 0 1-13.12 2.97 1.42 1.42 0 0 0-.91.29.72.72 0 0 0-.2.83.84.84 0 0 0 .34.7 4.69 4.69 0 0 0 .91.55A8.1 8.1 0 0 1 495 150q1.54 2.73 1.54 10.53v35.14q0 7.11-1.54 9.76a9 9 0 0 1-3.9 3.78c-.84.37-1.26.84-1.26 1.39a.93.93 0 0 0 .28.7 1.15 1.15 0 0 0 .83.28h22.41a1.16 1.16 0 0 0 .84-.28.92.92 0 0 0 .28-.7c0-.55-.42-1-1.26-1.39a9 9 0 0 1-3.9-3.78q-1.55-2.65-1.53-9.76v-23.13a32.89 32.89 0 0 1 2.52-12.76 24.46 24.46 0 0 1 7.12-9.81 16.14 16.14 0 0 1 10.46-3.78q14.24 0 14.22 19.11v30.39q0 7.13-1.53 9.76a8.85 8.85 0 0 1-3.9 3.78c-.94.38-1.4.84-1.4 1.4a.89.89 0 0 0 .35.7 1.4 1.4 0 0 0 .91.27H559a1.12 1.12 0 0 0 .84-.27 1 1 0 0 0 .27-.7c-.03-.58-.49-1.04-1.4-1.43Zm65.82-18.81a1.27 1.27 0 0 0-1.11.83 24.51 24.51 0 0 1-7.67 10.95 19.61 19.61 0 0 1-12.69 4.11 21.25 21.25 0 0 1-12.84-4 25.76 25.76 0 0 1-8.65-11.78 49.57 49.57 0 0 1-3.07-18.34 45.83 45.83 0 0 1 2.3-15.61 21 21 0 0 1 6.35-9.49 14.79 14.79 0 0 1 9.48-3.2 11.9 11.9 0 0 1 9.76 4.46q3.63 4.45 3.49 12.69a7.56 7.56 0 0 0 1.6 5.09 5.47 5.47 0 0 0 4.41 1.89 5.93 5.93 0 0 0 4.41-1.61 6.5 6.5 0 0 0 1.6-4.8 19.71 19.71 0 0 0-11.64-18.34 31.19 31.19 0 0 0-40.53 14.3 42.34 42.34 0 0 0-4 19q0 11.56 4.18 19.73a29.57 29.57 0 0 0 11.44 12.4 33.88 33.88 0 0 0 30.25 1.36 24.21 24.21 0 0 0 9.2-7.68 30.48 30.48 0 0 0 4.74-10.32 1.19 1.19 0 0 0-.07-1.18 1 1 0 0 0-.94-.46Zm29.59 18.81a8.8 8.8 0 0 1-3.9-3.78c-1-1.76-1.55-5-1.54-9.76v-53.1a2.23 2.23 0 0 0-.49-1.53 1.66 1.66 0 0 0-1.32-.56 4.44 4.44 0 0 0-2 .56 39.74 39.74 0 0 1-13.06 2.97 1.42 1.42 0 0 0-.91.29.74.74 0 0 0-.21.83.88.88 0 0 0 .35.7 4.69 4.69 0 0 0 .91.55 8.1 8.1 0 0 1 3.9 3.7q1.54 2.73 1.54 10.53v35.14c0 4.74-.52 8-1.54 9.76a9 9 0 0 1-3.9 3.78c-.84.37-1.26.84-1.26 1.39a.93.93 0 0 0 .28.7 1.14 1.14 0 0 0 .83.28h22.45a1.18 1.18 0 0 0 .84-.28 1 1 0 0 0 .28-.7c.01-.62-.37-1.08-1.25-1.47Zm-13.39-75.42a10 10 0 0 0 6.62-2.16 6.75 6.75 0 0 0 2.58-5.37 6.33 6.33 0 0 0-2.52-5.3 10 10 0 0 0-6.3-2 10.25 10.25 0 0 0-6.62 2.1 6.66 6.66 0 0 0-2.58 5.43 6.4 6.4 0 0 0 2.52 5.23 9.7 9.7 0 0 0 6.3 2.07Zm46.44 75.42a8.82 8.82 0 0 1-3.91-3.78c-1-1.76-1.53-5-1.53-9.76v-82.54a2.29 2.29 0 0 0-.49-1.54 1.69 1.69 0 0 0-1.33-.56 4.62 4.62 0 0 0-1.95.56 39.9 39.9 0 0 1-13.11 2.93 1.34 1.34 0 0 0-.9.28.73.73 0 0 0-.21.83.85.85 0 0 0 .34.7 5.71 5.71 0 0 0 .91.56 8 8 0 0 1 3.91 3.7q1.53 2.72 1.53 10.52v64.59q0 7.11-1.53 9.76a9 9 0 0 1-3.91 3.78c-.83.37-1.26.84-1.26 1.39a1 1 0 0 0 .28.7 1.16 1.16 0 0 0 .84.28h22.45a1.18 1.18 0 0 0 .84-.28 1 1 0 0 0 .27-.7c.01-.57-.41-1.03-1.24-1.42ZM397.24 70.66l20.52-2.77q9.76-1.41 14.57-5.67t4.82-11.93A18.51 18.51 0 0 0 434 39.77a21.54 21.54 0 0 0-9.35-7.46 36.3 36.3 0 0 0-14.85-2.79 35 35 0 0 0-17.71 4.32 29.62 29.62 0 0 0-11.71 12.48q-4.17 8.19-4.17 19.34A40.4 40.4 0 0 0 380.62 85a30.82 30.82 0 0 0 12.14 12.6 34.66 34.66 0 0 0 17.5 4.41 35.08 35.08 0 0 0 14.92-2.92 27.12 27.12 0 0 0 9.9-7.46 26.67 26.67 0 0 0 5-9.69 1.73 1.73 0 0 0 0-1.68 1.35 1.35 0 0 0-1.26-.69 1.71 1.71 0 0 0-1.53 1.12 25.21 25.21 0 0 1-7.39 8.64 18.76 18.76 0 0 1-11.16 3.21 18.41 18.41 0 0 1-10.71-3.29 22 22 0 0 1-6.03-6.41s-1.72-2.81-3.93-6.71c-1.37-2.4-3.38-4.1-6.75-3.71l-.12-.9Zm0-25.16a18.35 18.35 0 0 1 4.32-8.36 9.4 9.4 0 0 1 7-3 8.9 8.9 0 0 1 8 4.3q2.79 4.34 2.79 11.44 0 6.3-2.93 10t-9.07 4.53l-11 1.52v-.22a65.92 65.92 0 0 1-.39-7.43 50.68 50.68 0 0 1 1.35-12.75Z" data-name="Layer 1-2"/></g></g></g></svg>